<svg xmlns="http://www.w3.org/2000/svg" viewBox="0 0 61.47 42.9">
    <defs>
        <style>
            *{fill:#333333;}
            .cls-1{stroke:#333333;stroke-miterlimit:10;stroke-width:5px;}
        </style>
    </defs>
    <g id="Layer_2" data-name="Layer 2">
        <g id="Layer_1-2" data-name="Layer 1">
            <path class="cls-1" d="M47.26,40.4a2.42,2.42,0,0,1-2.09-1.31,12.56,12.56,0,0,1-1.27-3.75l-.84-4q-1-3.75-3.05-16.54L35.33,28.89l-1.39,4.45a26.23,26.23,0,0,1-1.75,4.34,3,3,0,0,1-2.65,1.78A2.41,2.41,0,0,1,27.36,38a12.42,12.42,0,0,1-.94-2.51l-.68-2.6q-2.37-8.26-4.17-17.72l-.85,4.2-3,12.37a49.21,49.21,0,0,1-1.17,6.45A2.42,2.42,0,0,1,14.21,40a2.26,2.26,0,0,1-1.83-.82,2.64,2.64,0,0,1-.59-1.74,36.28,36.28,0,0,1,1.62-9.61L16,18.37,17.35,11c.69-3.45,1.41-5.71,2.18-6.77a2.74,2.74,0,0,1,2.32-1.36,2.43,2.43,0,0,1,2.27,1.74,42.38,42.38,0,0,1,2,8.5A138.35,138.35,0,0,0,30,29.78,174.2,174.2,0,0,0,36,11l.7-3.42a12.58,12.58,0,0,1,1.1-3.33A2.79,2.79,0,0,1,40.27,2.5c1.34,0,2.37,1.3,3.07,3.89a47.85,47.85,0,0,1,.92,5.53A136.17,136.17,0,0,0,47.7,30l1.15,4a23.12,23.12,0,0,1,.89,4A2.17,2.17,0,0,1,49,39.72,2.53,2.53,0,0,1,47.26,40.4Z" />
            <ellipse class="cls-1" cx="8.86" cy="6.95" rx="6.11" ry="2.89" />
            <ellipse class="cls-1" cx="52.86" cy="6.95" rx="6.11" ry="2.89" />
            <path d="M5.46,10.38.51,15.3a1.89,1.89,0,0,0,.52,3l3.15,1.82a1.88,1.88,0,0,0,2.82-1L8.79,12.3A2,2,0,0,0,5.46,10.38Z" />
        </g>
    </g>
</svg>