<svg xmlns="http://www.w3.org/2000/svg" viewBox="0 0 173.04 42.9">
    <defs>
        <style>
            *{fill:#333333;}
            .cls-1{stroke:#333333;stroke-miterlimit:10;stroke-width:5px;}
        </style>
    </defs>
    <g id="Layer_2" data-name="Layer 2">
        <g id="Layer_1-2" data-name="Layer 1">
            <path class="cls-1" d="M47.26,40.4a2.42,2.42,0,0,1-2.09-1.31,12.56,12.56,0,0,1-1.27-3.75l-.84-4q-1-3.75-3.05-16.54L35.33,28.89l-1.39,4.45a26.23,26.23,0,0,1-1.75,4.34,3,3,0,0,1-2.65,1.78A2.41,2.41,0,0,1,27.36,38a12.42,12.42,0,0,1-.94-2.51l-.68-2.6q-2.37-8.26-4.17-17.72l-.85,4.2-3,12.37a49.21,49.21,0,0,1-1.17,6.45A2.42,2.42,0,0,1,14.21,40a2.26,2.26,0,0,1-1.83-.82,2.64,2.64,0,0,1-.59-1.74,36.28,36.28,0,0,1,1.62-9.61L16,18.37,17.35,11c.69-3.45,1.41-5.71,2.18-6.77a2.74,2.74,0,0,1,2.32-1.36,2.43,2.43,0,0,1,2.27,1.74,42.38,42.38,0,0,1,2,8.5A138.35,138.35,0,0,0,30,29.78,174.2,174.2,0,0,0,36,11l.7-3.42a12.58,12.58,0,0,1,1.1-3.33A2.79,2.79,0,0,1,40.27,2.5c1.34,0,2.37,1.3,3.07,3.89a47.85,47.85,0,0,1,.92,5.53A136.17,136.17,0,0,0,47.7,30l1.15,4a23.12,23.12,0,0,1,.89,4A2.17,2.17,0,0,1,49,39.72,2.53,2.53,0,0,1,47.26,40.4Z" />
            <path class="cls-1" d="M65.18,39.84a9.13,9.13,0,0,1-6.78-2.91,12.47,12.47,0,0,1-3.33-8.7,15.12,15.12,0,0,1,2.68-9.32,10.46,10.46,0,0,1,9.14-4.76A7.71,7.71,0,0,1,74,18.44a16.43,16.43,0,0,1,1.85,8.34,15.14,15.14,0,0,1-2.72,8.88A9.32,9.32,0,0,1,65.18,39.84Zm1.4-20.93a5.88,5.88,0,0,0-5.37,3.28,11.94,11.94,0,0,0-1.52,6,7.28,7.28,0,0,0,1.85,5.3,4.92,4.92,0,0,0,3.64,1.57,5.67,5.67,0,0,0,4.19-1.78A7.54,7.54,0,0,0,71.48,28Q71.81,18.92,66.58,18.91Z" />
            <path class="cls-1" d="M92,39.84a9.13,9.13,0,0,1-6.77-2.91,12.47,12.47,0,0,1-3.33-8.7,15.18,15.18,0,0,1,2.67-9.32,10.48,10.48,0,0,1,9.14-4.76,7.69,7.69,0,0,1,7.1,4.29,16.43,16.43,0,0,1,1.86,8.34A15.21,15.21,0,0,1,100,35.66,9.32,9.32,0,0,1,92,39.84Zm1.41-20.93A5.87,5.87,0,0,0,88,22.19a11.94,11.94,0,0,0-1.52,6,7.23,7.23,0,0,0,1.85,5.3A4.92,4.92,0,0,0,92,35.1a5.68,5.68,0,0,0,4.2-1.78A7.54,7.54,0,0,0,98.31,28Q98.64,18.92,93.41,18.91Z" />
            <path class="cls-1" d="M126.15,20.41a1.94,1.94,0,0,1-1.81-.87,8.48,8.48,0,0,1-.61-2.53q-1.76.43-5.41,1.64c-2.52,1-3.78,2.23-3.8,3.7a8.24,8.24,0,0,0,1.39.38,22.49,22.49,0,0,1,8,2.65,8,8,0,0,1,3.82,7.12,6.29,6.29,0,0,1-3.3,5.77,13.68,13.68,0,0,1-6.94,1.59,16.69,16.69,0,0,1-5.86-1Q108,37.51,108,35.17a2.22,2.22,0,0,1,.74-1.64,2.35,2.35,0,0,1,1.67-.7A3.14,3.14,0,0,1,112.32,34a5.3,5.3,0,0,0,2.53.89,15.22,15.22,0,0,0,2.65.28,11.76,11.76,0,0,0,3.47-.46c1.45-.46,2.18-1.18,2.18-2.16q0-3.18-4.46-4.31l-2.43-.54a12.89,12.89,0,0,1-4.43-1.6,4.47,4.47,0,0,1-1.9-4,7.16,7.16,0,0,1,4.62-7,34.5,34.5,0,0,1,4.5-1.51,34.76,34.76,0,0,0,4.43-1.49,5.12,5.12,0,0,1,2.08-.42,2.24,2.24,0,0,1,1.65.65,2.35,2.35,0,0,1,.65,1.71,10.39,10.39,0,0,0,.29,2,9.57,9.57,0,0,1,.29,2,2.34,2.34,0,0,1-.64,1.71A2.21,2.21,0,0,1,126.15,20.41Z" />
            <path class="cls-1" d="M141.1,27.81c0,.94,0,2.34.08,4.21s.08,3.27.08,4.21a2.32,2.32,0,0,1-.63,1.68,2.42,2.42,0,0,1-3.32,0,2.28,2.28,0,0,1-.64-1.68c0-.94,0-2.34-.08-4.21s-.09-3.27-.09-4.21q0-2.2.24-5.49c.15-2.2.23-4,.23-5.5a2.35,2.35,0,0,1,.65-1.71,2.39,2.39,0,0,1,3.3,0,2.35,2.35,0,0,1,.65,1.71c0,1.47-.08,3.3-.24,5.5S141.1,26.34,141.1,27.81ZM140,8.78A2.64,2.64,0,0,1,138.1,8a2.56,2.56,0,0,1-.82-1.92,2.56,2.56,0,0,1,.82-1.92,2.75,2.75,0,0,1,3.88,0,2.59,2.59,0,0,1,.81,1.92A2.59,2.59,0,0,1,142,8,2.64,2.64,0,0,1,140,8.78Z" />
            <path class="cls-1" d="M161.68,39.93a11.49,11.49,0,0,1-8-2.91,10.3,10.3,0,0,1-3.37-8,18.54,18.54,0,0,1,3.16-9.82q3.51-5.62,7.92-5.62a14.67,14.67,0,0,1,5.14,1.08Q170.1,16,170.09,18a2.36,2.36,0,0,1-.58,1.58,1.89,1.89,0,0,1-2.64.29l-1-.81a7.3,7.3,0,0,0-4.53-1.1q-2.38,0-4.73,4.26A14.73,14.73,0,0,0,154.51,29a6.06,6.06,0,0,0,2.1,4.88,7.59,7.59,0,0,0,5.07,1.66,7.12,7.12,0,0,0,3-.75l2.72-1.45a2.52,2.52,0,0,1,1-.37,2,2,0,0,1,1.5.69,2.23,2.23,0,0,1,.64,1.58c0,1.14-1.21,2.24-3.61,3.3A13.57,13.57,0,0,1,161.68,39.93Z" />
            <ellipse class="cls-1" cx="8.86" cy="6.95" rx="6.11" ry="2.89" />
            <ellipse class="cls-1" cx="52.86" cy="6.95" rx="6.11" ry="2.89" />
            <path d="M5.46,10.38.51,15.3a1.89,1.89,0,0,0,.52,3l3.15,1.82a1.88,1.88,0,0,0,2.82-1L8.79,12.3A2,2,0,0,0,5.46,10.38Z" />
        </g>
    </g>
</svg>