<svg id="Layer_1" data-name="Layer 1" xmlns="http://www.w3.org/2000/svg" viewBox="0 0 556.5 233.41"><defs><style>.cls-1{fill:none;stroke:#000;stroke-miterlimit:10;stroke-width:5px;}</style></defs><path class="cls-1" d="M48.26,82.84V187.51A31,31,0,0,0,50.37,197a71.55,71.55,0,0,1,2.89,9.2,48.42,48.42,0,0,1,.53,12.63c-.36,6-1.58,9.64-3.69,11-1.05.7-3.07,1.06-6.05,1.06q-9.72,0-23.14-3.42-14.46-3.42-17.09-7.1a7.85,7.85,0,0,1-1.32-4.48m182-134.65q-12.37,24.19-32.35,108.88a9.53,9.53,0,0,0-.27,2.37,60.89,60.89,0,0,0,.92,8.41,64.06,64.06,0,0,1,.93,7.37,75.13,75.13,0,0,1-.79,10.52c-.88,3.5-2.72,5.61-5.53,6.31q-2.62.8-9.2.79-34.2,0-47.08-11.84-2.1-1.83-1.58-6.57.53-5.79,0-7.63M159,5.78a15.3,15.3,0,0,1,4.2-.53q4.47,0,15,2.37,11.58,2.9,16,3.15,20.78,1.85,23.93,2.37,12.36,2.37,13.94,8.68a14.34,14.34,0,0,1,.53,3.95,31,31,0,0,1-1.32,7.49A30.8,30.8,0,0,0,230,40.49v161q0,2.63,3.28,7.89t2.76,7.89q-1.83,11.31-6.31,12.36-6.31,1.57-24.19-3.42Q186.6,220.91,184,215.65a9.8,9.8,0,0,1-.79-3.94,32,32,0,0,1,.66-5.13m-120.9-190C83.8,22,79.38,22.26,80.61,26.29a14.38,14.38,0,0,1,.26,6.31c-.52,3.69-.79,5.88-.79,6.58a10.71,10.71,0,0,0,.79,4.21l35.51,95.47"/><path class="cls-1" d="M268.91,168.05q-5.52-5.52-5.52-11.05a18.3,18.3,0,0,1,.26-2.89q.53-3.15,16.05-11.31m84.42,26.56q-10,1.32-29.19,7.24t-25,9.86q-3.94,11.31-10.52,27.88c-.52,2.45-1.1,4.78-1.71,7a9.11,9.11,0,0,1-4.6,5.39,4.34,4.34,0,0,1-2.37.52q-6.32,0-21.17-6.57T254.19,212m59.7-196.72c-.36-4.74.17-7.72,1.57-8.95.88-.87,3-1.31,6.32-1.31Q334.14,5,357,11.3t27.35,11.31q1.58,29.19,11.84,87.58Q409.35,182.25,423,209.6c-.18,1.58-.52,5.35-1,11.31-.18,3.16-.88,5.52-2.1,7.1a9.21,9.21,0,0,1-4.48.79q-8.67,0-21.56-4.47-13.95-4.22-18.94-10M325.72,137q5-2.1,28.67-7.36-3.42-16.58-4.21-21.83a339.51,339.51,0,0,1-3.94-36.56"/><path class="cls-1" d="M433.55,66m2.89,108.36a34.42,34.42,0,0,1-5-7.36,10.79,10.79,0,0,1,1.45-7.76,10.19,10.19,0,0,1,5.39-4.87,21.27,21.27,0,0,1,5.79-.52,139.28,139.28,0,0,1,22.49,2.23q13.28,2.23,14.85,4.08t4.21,18.93q2.37,15.78,7.1,17.63a5.22,5.22,0,0,0,2.37.52q5,0,8.55-8.28a47.3,47.3,0,0,0,3.55-18.81q0-22.87-14.2-30.51m8.94-89.42q0-11.3-2.63-11-8.16.52-13.55,11.7a57.78,57.78,0,0,0-5.39,25.38q0,23.67,13.94,33.67l31.56,20q15,9.74,20.78,19.47Q554,162,554,184.62q0,19.47-12.88,31.95t-35.77,13A46.19,46.19,0,0,1,493,227.75q-12.11-3.42-12.63-3.42Q474,223,467.61,221.57M475.37,2.62q6-1.31,36.82,11.57,7.62,2.9,15.38,6a29.75,29.75,0,0,1,12.49,9.21q7.37,9.21,7.37,31.82,0,4.21-.27,12.36-.25,7.11-.26,10a33.39,33.39,0,0,0,1.84,6,11.27,11.27,0,0,1,1,5.79q-.52,11.58-9.73,12.89-5.26.78-19.46-3.95-15.78-5-20-10.78"/><ellipse cx="48.26" cy="82.84" rx="2.5" ry="2.56"/><ellipse cx="62.94" cy="16.57" rx="2.5" ry="2.56"/><ellipse cx="116.38" cy="138.86" rx="2.5" ry="2.56"/><ellipse cx="89.55" cy="199.87" rx="2.5" ry="2.56"/><ellipse cx="183.84" cy="206.58" rx="2.5" ry="2.56"/><ellipse cx="254.19" cy="211.7" rx="2.5" ry="2.56"/><ellipse cx="269.04" cy="168.05" rx="2.5" ry="2.56"/><ellipse cx="279.7" cy="142.8" rx="2.5" ry="2.56"/><ellipse cx="325.72" cy="137.01" rx="2.5" ry="2.56" transform="translate(56.28 365.63) rotate(-63.13)"/><ellipse cx="364.12" cy="169.36" rx="2.5" ry="2.56"/><ellipse cx="375" cy="214.3" rx="2.5" ry="2.56"/><ellipse cx="436.44" cy="174.36" rx="2.5" ry="2.56"/><ellipse cx="467.61" cy="221.61" rx="2.5" ry="2.56"/><ellipse cx="493.05" cy="139.64" rx="2.5" ry="2.56"/><ellipse cx="500.7" cy="93.66" rx="2.5" ry="2.56"/><ellipse cx="501.92" cy="50.14" rx="2.5" ry="2.56"/><ellipse cx="474.97" cy="2.71" rx="2.5" ry="2.56"/><ellipse cx="346.26" cy="71.26" rx="2.5" ry="2.56"/><ellipse cx="313.89" cy="15.35" rx="2.5" ry="2.56"/><ellipse cx="184.44" cy="81.26" rx="2.5" ry="2.56"/><ellipse cx="158.99" cy="5.72" rx="2.5" ry="2.56"/><ellipse cx="2.5" cy="215.74" rx="2.5" ry="2.56"/></svg>